<svg width="162" height="48" fill="none" xmlns="http://www.w3.org/2000/svg"><path d="M149.1 0H10.2L7.5.2c-1 .2-1.8.4-2.6.8a8.8 8.8 0 00-3.8 3.3C.7 5.1.4 5.8.3 6.6L0 9V39c0 .9.1 1.7.3 2.5a7.3 7.3 0 002.4 4.2 9.9 9.9 0 004.8 2.2 20.5 20.5 0 004 .2h139.1a63.4 63.4 0 004-.2 10 10 0 002.5-.8 8.5 8.5 0 003.8-3.3c.4-.8.7-1.5.8-2.3l.3-2.4v-1.1-26.5-1.3-1c0-.9-.1-1.7-.3-2.5-.1-.8-.4-1.5-.8-2.3A8.3 8.3 0 00157 1a10 10 0 00-2.6-.8l-2.7-.2h-2.7z" fill="#A6A6A6"/><path d="M11.3 47a60.9 60.9 0 01-3.7-.3A7.4 7.4 0 012 43.1c-.4-.5-.7-1.2-.8-1.9a13.2 13.2 0 01-.3-3.3V10a109.6 109.6 0 01.3-3.3 6.4 6.4 0 012.1-3.7 7.6 7.6 0 014.1-1.8C8.4 1 9.2 1 10.1 1H151.9c.9 0 1.7 0 2.5.2a7.2 7.2 0 015.5 3.6c.4.5.7 1.2.8 1.9.2.7.2 1.5.2 2.3V39c0 .7 0 1.5-.2 2.2a6.4 6.4 0 01-2.1 3.7 8.7 8.7 0 01-4.2 1.9 19.1 19.1 0 01-3.7.2H11.3z" fill="#000"/><path d="M39.4 24.4a6 6 0 012.8-5 6 6 0 00-4.8-2.6c-2-.2-4 1.2-5 1.2s-2.6-1.2-4.3-1.2a6.4 6.4 0 00-5.4 3.3c-2.3 4-.6 10 1.6 13.2 1.1 1.6 2.4 3.4 4.1 3.3 1.7 0 2.3-1 4.3-1s2.6 1 4.4 1c1.7 0 2.9-1.6 4-3.2.7-1.2 1.4-2.4 1.8-3.8a5.7 5.7 0 01-3.5-5.2zM36 14.7c1-1.2 1.5-2.7 1.4-4.2a6 6 0 00-5 3.8c-.2.7-.3 1.5-.2 2.2a5 5 0 003.9-1.8zM60.4 32.6h-5.7l-1.3 4h-2.5l5.4-15h2.5l5.4 15h-2.4l-1.4-4zm-5-1.9h4.4l-2.2-6.5-2.3 6.5zM75.8 31.2c0 3.3-1.8 5.5-4.5 5.5a3.7 3.7 0 01-3.4-1.9v5.4h-2.3V25.7h2.2v1.8a3.9 3.9 0 013.5-1.9c2.7 0 4.5 2.2 4.5 5.6zm-2.3 0c0-2.2-1.1-3.7-2.8-3.7-1.7 0-2.9 1.5-2.9 3.7s1.2 3.6 2.9 3.6 2.8-1.4 2.8-3.6zM87.8 31.2c0 3.3-1.8 5.5-4.6 5.5a3.7 3.7 0 01-3.4-1.9v5.4h-2.3V25.7h2.2v1.8a3.9 3.9 0 013.5-1.9c2.8 0 4.6 2.2 4.6 5.6zm-2.3 0c0-2.2-1.1-3.7-2.9-3.7-1.7 0-2.8 1.5-2.8 3.7s1.1 3.6 2.8 3.6c1.8 0 2.9-1.4 2.9-3.6zM95.7 32.4c.2 1.5 1.6 2.5 3.5 2.5 2 0 3.3-1 3.3-2.3 0-1.2-.8-1.9-2.8-2.3l-1.9-.5c-2.7-.7-4-2-4-4 0-2.6 2.2-4.4 5.4-4.4s5.3 1.8 5.4 4.4h-2.3c0-1.5-1.3-2.4-3.1-2.4s-3 1-3 2.2c0 1 .7 1.7 2.7 2.2l1.6.4c3 .7 4.3 2 4.3 4.1 0 2.8-2.2 4.5-5.7 4.5-3.3 0-5.6-1.7-5.7-4.4h2.3zM109.7 23.2v2.5h2v1.8h-2v6c0 1 .4 1.4 1.3 1.4l.7-.1v1.8h-1.2c-2.2 0-3-.8-3-2.9v-6.2h-1.7v-1.8h1.6v-2.5h2.3zM113 31.2c0-3.5 2-5.6 5-5.6 3.2 0 5.2 2.1 5.2 5.6 0 3.4-2 5.5-5.1 5.5-3.2 0-5.2-2.1-5.2-5.5zm8 0c0-2.4-1.1-3.8-3-3.8-1.7 0-2.8 1.4-2.8 3.8 0 2.3 1 3.7 2.9 3.7 1.8 0 2.8-1.4 2.8-3.7zM125 25.7h2.2v1.9a2.6 2.6 0 012.6-2l.8.1v2h-1a2.2 2.2 0 00-2.3 2.5v6.4H125V25.7zM140.9 33.4c-.3 2-2.2 3.3-4.7 3.3-3.1 0-5.1-2-5.1-5.5 0-3.4 2-5.6 5-5.6s5 2 5 5.4v.7h-7.8v.2a2.8 2.8 0 003 3 2.5 2.5 0 002.5-1.5h2zm-7.5-3.2h5.4a2.6 2.6 0 00-2.7-2.8 2.7 2.7 0 00-2.7 2.8zM55 10.5a3.2 3.2 0 013.4 3.5c0 2.3-1.2 3.6-3.4 3.6h-2.6v-7.1H55zm-1.4 6.1h1.3a2.3 2.3 0 002.4-2.6 2.3 2.3 0 00-2.4-2.5h-1.3v5.1zM59.7 15a2.6 2.6 0 115 0 2.6 2.6 0 11-5 0zm4 0c0-1.2-.6-2-1.5-2-1 0-1.4.8-1.4 2 0 1.1.5 1.8 1.4 1.8 1 0 1.5-.7 1.5-1.9zM71.5 17.6h-1l-1.2-4-1.2 4h-1l-1.6-5.4h1.1l1 4.2 1.2-4.2h1l1 4.2h.2l1-4.2h1l-1.5 5.4zM74.3 12.2h1v.9a1.6 1.6 0 011.7-1 1.8 1.8 0 011.8 2v3.5h-1v-3.2c0-.9-.4-1.3-1.2-1.3a1.2 1.2 0 00-1.3 1.4v3.1h-1v-5.4zM80.5 10.1h1.1v7.5h-1v-7.5zM83.1 15a2.6 2.6 0 115 0 2.6 2.6 0 11-5 0zm4 0c0-1.2-.5-2-1.5-2-.9 0-1.4.8-1.4 2 0 1.1.5 1.8 1.4 1.8 1 0 1.5-.7 1.5-1.9zM89.3 16.1c0-1 .7-1.5 2-1.6h1.5v-.6c0-.5-.4-.8-1.1-.8-.6 0-1 .2-1.1.6h-1c0-1 1-1.6 2.1-1.6 1.4 0 2.2.7 2.2 1.8v3.7h-1V17h-.2a1.8 1.8 0 01-1.6.8 1.6 1.6 0 01-1.8-1.6zm3.5-.5v-.4h-1.3c-.8.1-1.1.4-1.1.9 0 .4.4.7 1 .7a1.3 1.3 0 001.4-1.2zM95.3 15c0-1.8.8-2.9 2.2-2.9a1.8 1.8 0 011.7 1v-3h1.1v7.5h-1v-.8h-.1a1.9 1.9 0 01-1.7 1c-1.4 0-2.2-1.2-2.2-2.9zm1 0c0 1 .6 1.8 1.5 1.8s1.5-.7 1.5-1.9c0-1-.6-1.8-1.5-1.8s-1.4.7-1.4 1.8zM104.7 15a2.6 2.6 0 013.6-2.7 2.6 2.6 0 011.5 2.6 2.6 2.6 0 01-1.5 2.6 2.6 2.6 0 01-3.6-2.6zm4 0c0-1.2-.5-2-1.4-2-1 0-1.5.8-1.5 2 0 1.1.5 1.8 1.5 1.8.9 0 1.4-.7 1.4-1.9zM111.2 12.2h1v.9h.1a1.6 1.6 0 011.7-1 1.8 1.8 0 011.8 2v3.5h-1v-3.2c0-.9-.4-1.3-1.2-1.3a1.2 1.2 0 00-1.3 1.4v3.1h-1v-5.4zM121.9 10.9v1.4h1.1v.9H122v2.7c0 .6.2.8.7.8h.4v1h-.6c-1.1 0-1.6-.4-1.6-1.5v-3h-.9v-1h.9V11h1zM124.5 10.1h1v3h.1a1.7 1.7 0 011.7-1 1.8 1.8 0 011.8 2v3.5h-1v-3.2c0-.9-.4-1.3-1.2-1.3a1.3 1.3 0 00-1.4 1.4v3.1h-1v-7.5zM135.3 16.2a2.2 2.2 0 01-2.3 1.5 2.5 2.5 0 01-2.5-2.7A2.5 2.5 0 01133 12c1.5 0 2.4 1 2.4 2.8v.3h-3.8a1.4 1.4 0 00.9 1.5l.5.1a1.3 1.3 0 001.3-.6h1zm-3.7-1.8h2.7a1.3 1.3 0 00-.8-1.3h-.5a1.4 1.4 0 00-1.4 1.3z" fill="#fff"/></svg>