<svg width="100" height="30" fill="none" xmlns="http://www.w3.org/2000/svg"><g clip-path="url(#clip0)"><path d="M74.4 29.1l8.3-9.2-8.3-9.3h8.8l4 4.5 4-4.5h8.6l-8.3 9.2 8.4 9.3H91l-4-4.5-4.1 4.5h-8.5zM74.4 6.5h-9.5v4.1h9.5V17h-9.5v5.7h9.5v6.5H58V0h16.4v6.5z" fill="#F60"/><path d="M51 0v12a7 7 0 00-5.7-2.4c-4.5 0-8 3-9.1 7-1.4-4.4-5-7.1-10.2-7.1-4.2 0-7.6 1.9-9.4 5v-3.9H7.8V6.5h9.6V0H0v29.1h7.8V16.9h7.9c-.3.9-.4 1.8-.4 2.8 0 6.1 4.7 10.4 10.7 10.4 5 0 8.4-2.4 10.1-6.6h-6.7c-.9 1.3-1.6 1.6-3.4 1.6a4 4 0 01-4-4h13.8c.6 4.9 4.4 9 9.6 9 2.3 0 4.3-1 5.6-2.9v1.9h7V0h-7zM22.4 17c.4-1.9 1.9-3.1 3.7-3.1 2 0 3.4 1.2 3.8 3h-7.5zm24.6 7.7c-2.6 0-4.2-2.4-4.2-4.8 0-2.6 1.4-5.1 4.2-5.1 2.8 0 4 2.5 4 5 0 2.6-1.2 4.9-4 4.9z" fill="#652C8F"/></g><defs><clipPath id="clip0"><path fill="#fff" d="M0 0h100v30H0z"/></clipPath></defs></svg>