<svg width="95" height="32" fill="none" xmlns="http://www.w3.org/2000/svg"><path d="M40.4 16.4c0 4.5-3.5 7.7-7.7 7.7a7.6 7.6 0 01-7.8-7.7c0-4.5 3.5-7.7 7.8-7.7 4.2 0 7.7 3.2 7.7 7.7zm-3.4 0c0-2.8-2-4.7-4.3-4.7-2.4 0-4.4 2-4.4 4.7 0 2.8 2 4.7 4.4 4.7 2.3 0 4.3-2 4.3-4.7z" fill="#EA4335"/><path d="M57.2 16.4c0 4.5-3.5 7.7-7.8 7.7a7.6 7.6 0 01-7.8-7.7c0-4.5 3.5-7.7 7.8-7.7s7.8 3.2 7.8 7.7zm-3.4 0c0-2.8-2-4.7-4.4-4.7-2.3 0-4.3 2-4.3 4.7 0 2.8 2 4.7 4.3 4.7 2.4 0 4.4-2 4.4-4.7z" fill="#FBBC05"/><path d="M73.3 9.2V23c0 5.7-3.4 8-7.4 8-3.8 0-6-2.5-6.9-4.5l3-1.2a4.3 4.3 0 003.9 2.7c2.5 0 4.1-1.6 4.1-4.5v-1.1c-.9.9-2.3 1.7-4.2 1.7a7.7 7.7 0 01-7.4-7.7c0-4.3 3.6-7.7 7.4-7.7 1.9 0 3.3.8 4.1 1.7h.1V9.2h3.3zm-3 7.2c0-2.7-1.9-4.7-4.2-4.7-2.3 0-4.3 2-4.3 4.7s2 4.7 4.3 4.7 4.2-2 4.2-4.7z" fill="#4285F4"/><path d="M78.6 1v22.7h-3.3V1h3.3z" fill="#34A853"/><path d="M91.5 19l2.7 1.7c-.9 1.3-3 3.4-6.5 3.4a7.6 7.6 0 01-7.7-7.7c0-4.6 3.3-7.7 7.3-7.7s6 3.2 6.6 4.9l.4.9-10.4 4.2a4 4 0 003.8 2.4c1.7 0 3-.9 3.8-2.2zm-8.1-2.8l7-2.9c-.5-1-1.6-1.6-3-1.6a4.2 4.2 0 00-4 4.5z" fill="#EA4335"/><path d="M12.3 14.4v-3.3h11.1l.2 2c0 2.5-.7 5.5-2.9 7.7a11 11 0 01-8.4 3.3C5.7 24.1.1 18.7.1 12.1a12.2 12.2 0 0120.5-8.6l-2.3 2.3a8.6 8.6 0 00-14.6 6.4c0 4.8 3.8 8.6 8.6 8.6a8 8 0 006.1-2.3c1-1 1.5-2.3 1.8-4.1h-7.9z" fill="#4285F4"/></svg>