<svg width="123" height="37" fill="none" xmlns="http://www.w3.org/2000/svg"><path fill-rule="evenodd" clip-rule="evenodd" d="M77.2 11.3l-2-3.4-3.5 1.7-2-3.4L66 8l-2-3.4-3.5 1.7-2-3.4L55 4.5l-2-3.4-3.5 1.7-7.6 24.6 9.2 2.8a4.8 4.8 0 019.5 1.4c0 .5 0 1-.2 1.4l9.3 2.9 7.5-24.6z" fill="#D61920"/><path fill-rule="evenodd" clip-rule="evenodd" d="M49.8 25.3a1 1 0 01-.8-1v-12a1 1 0 011-1h8.6a3.9 3.9 0 014 4v9a1 1 0 01-1.3 1 1 1 0 01-.8-1v-9a1.9 1.9 0 00-1.9-2h-1.9v11a1 1 0 01-1.1 1 1 1 0 01-.9-1v-11H51v11a1 1 0 01-1.2 1zm14.4 5.3a1 1 0 01-.8-1 1 1 0 011-1c.8 0 1.6-.6 1.8-1.4l1-3.4-3.4-11.3a1 1 0 01.7-1.2 1 1 0 011.3.6l2.5 8.4 2.5-8.4c.1-.4.6-.7 1.1-.6h.1c.6.1.9.7.7 1.2l-3.5 11.6-1 3.7a3.9 3.9 0 01-4 2.8z" fill="#FEFEFE"/><path fill-rule="evenodd" clip-rule="evenodd" d="M3 23.1h2a2 2 0 002-2v-5.7a2 2 0 00-2-2H3v9.7zM2 25.3a1 1 0 01-.9-1v-18a1 1 0 01.3-.7 1 1 0 011-.3c.4.1.8.5.8 1v5.2h2a4 4 0 014 4v5.8a4 4 0 01-4 4H1.8zM16.1 13.3a2 2 0 00-1 .2 2 2 0 00-1.3 1.8v6a2 2 0 002 2 2 2 0 002-2v-6a2 2 0 00-1.7-2zm-1 12a4 4 0 01-3.3-4v-6a4 4 0 012.5-3.7 4 4 0 014.4.8 4 4 0 011.1 2.9v6a4 4 0 01-4.7 4zm11.8-12a2 2 0 00-1.7.6 2 2 0 00-.6 1.4v6a2 2 0 002.7 1.8 2 2 0 001.2-1.8v-6a2 2 0 00-1.6-2zm-1 12a4 4 0 01-3.4-4v-6a4 4 0 018.1 0v6a4 4 0 01-2.5 3.8 4 4 0 01-2.3.2zm8.2 0a1 1 0 01-.8-1v-18a1 1 0 01.7-1h.5c.5 0 .8.5.8 1v10.6l4.8-5.3a1 1 0 011.5-.1 1 1 0 010 1.5l-3.5 4 3.7 6.8a1 1 0 01-.4 1.4 1 1 0 01-.7.1 1 1 0 01-.7-.5l-3.4-6.1-1.3 1.4v4.2a1 1 0 01-1 1H34zm45.8 0a3.8 3.8 0 01-2.7-1.9 1 1 0 010-.8c0-.2.2-.4.4-.6h.7c.3 0 .6.1.7.4.3.5.7.8 1.3.9a1.8 1.8 0 001.5-.5c.4-.4.6-.9.5-1.4a1.7 1.7 0 00-.7-1.3l-2.8-2a3.8 3.8 0 01-1.6-2.8 3.7 3.7 0 011.2-3 3.8 3.8 0 013.1-1c1.2.2 2.1.9 2.7 1.8a1 1 0 01-.4 1.5 1 1 0 01-.7 0 1 1 0 01-.7-.4 1.7 1.7 0 00-1.2-.8 1.6 1.6 0 00-1.8 1l-.1.7c0 .5.3 1 .7 1.3l2.8 2a3.8 3.8 0 011.6 2.9 3.7 3.7 0 01-1.2 3 3.9 3.9 0 01-3.2 1zm8 0a1 1 0 01-.8-1v-18a1 1 0 011-1h.2c.5 0 .9.5.9 1v5h2a4 4 0 014 4.1v9a1 1 0 01-1.2 1 1 1 0 01-.9-1v-9a2 2 0 00-2-2h-2v11a1 1 0 01-1.1 1zm14.3-12a2 2 0 00-2.3 2v6a2 2 0 104 0v-6a2 2 0 00-1.7-2zm-1 12a4 4 0 01-3.4-4v-6a4 4 0 018.1 0v6a4 4 0 01-2.8 3.9 4 4 0 01-2 0zM121.9 12.5a1 1 0 00-.1-.7 1 1 0 00-.7-.5 1 1 0 00-1.2.8s-1 4.5-2 8l-2-8a1 1 0 00-.8-.8h-.2a1 1 0 00-1 .8l-2 8-2-8a1 1 0 00-1.3-.8 1 1 0 00-.7 1.2l3 12a1 1 0 001 .9 1 1 0 001-.8l2-8a1671 1671 0 012.4 8.5l.6.3a1 1 0 001-.8l3-12z" fill="#333545"/></svg>