<svg width="103" height="32" fill="none" xmlns="http://www.w3.org/2000/svg"><path d="M29.5 22.7l-.4-1.2-.8-1.6a330 330 0 00-7.1-14.6l-.1-.2-.8-1.4c-.3-.6-.6-1.2-1.2-1.8A5.3 5.3 0 0012.7.5c-.7.3-1.3.8-1.8 1.4L9.7 3.7 9 5.2v.2c-2.5 4.8-5 9.7-7.2 14.5l-.8 1.7-.4 1.1a6.7 6.7 0 003.7 8.8 7 7 0 003.5.4c1.2-.1 2.3-.5 3.2-1 1.3-.8 2.6-1.9 4-3.4 1.4 1.5 2.7 2.6 4 3.3 1.2.8 2.6 1.2 4 1.2a6.9 6.9 0 006.9-5.8c.3-1.2.2-2.4-.3-3.5zM15 24.3a15.9 15.9 0 01-3.2-6c-.2-.6-.2-1.2-.1-1.9 0-.5.2-1 .5-1.3.6-.9 1.7-1.4 2.8-1.4A3.4 3.4 0 0118 15l.5 1.3a5 5 0 01-.1 2c-.4 1.7-1.5 3.7-3.3 6zM28 25.8a4.7 4.7 0 01-3 3.8c-.7.3-1.6.4-2.4.3-.8-.1-1.6-.4-2.4-.9-1.4-.8-2.6-1.8-3.7-3 2.1-2.7 3.4-5 3.9-7.1.2-1 .3-2 .2-2.8-.2-.7-.5-1.5-1-2.2a5.4 5.4 0 00-4.4-2.2c-2 0-3.6.8-4.6 2.2-.4.7-.7 1.4-.8 2.2-.2.9-.1 1.8.1 2.8.5 2 1.8 4.5 3.9 7-1 1.3-2.3 2.4-3.7 3.2-.8.5-1.6.7-2.4.8-1.3.2-2.5-.2-3.5-1-1-.7-1.7-1.8-1.9-3 0-.9 0-1.7.3-2.6l.4-1 .8-1.6c2.2-4.8 4.6-9.7 7-14.5l.1-.2.8-1.4 1-1.4a3.3 3.3 0 014-.9c.4.2.7.5 1 .9l1 1.4.7 1.4.1.2C22 11 24.3 16 26.5 20.7l.8 1.6.4 1c.2 1 .3 1.7.2 2.5zm14-1.7a5.1 5.1 0 01-4-1.8 6.5 6.5 0 01-1.6-4.5 7 7 0 011.7-4.6 5.3 5.3 0 016.3-1.3c.6.3 1.2.8 1.6 1.4v-1.6h3v12.1h-3V22a4.5 4.5 0 01-4 2.1zm.8-2.9a3 3 0 001.6-.4 4 4 0 001.5-3 3.4 3.4 0 00-1.5-3.1 3 3 0 00-3.2 0c-.4.3-.8.7-1 1.2a4 4 0 00-.4 1.8 3.4 3.4 0 001.4 3c.5.4 1 .5 1.6.5zM54 8.5c0 .3 0 .6-.2.9-.2.2-.4.5-.7.6-.3.2-.6.2-1 .2a2 2 0 01-.9-.2c-.3-.1-.5-.3-.7-.6l-.2-1c0-.3 0-.6.2-.9.2-.3.4-.5.7-.6a2 2 0 011-.2 1.9 1.9 0 011.6.8l.2 1zm-3.5 15.3V11.7h3.3v12h-3.3zm11.8-9v.1l-.5-.1h-.5c-1 0-1.6.2-2 .7-.5.6-.8 1.3-.8 2.3v6h-3.2V11.7h3v1.8c.4-.6.8-1.1 1.3-1.5.6-.3 1.2-.5 1.9-.5l.6.1h.2V15zm1.3 9v-17h3.2v6.4c.5-.5 1-1 1.7-1.3a5.1 5.1 0 016 1.3c1.2 1.2 1.8 2.8 1.7 4.5a7 7 0 01-1.7 4.5 5.3 5.3 0 01-6.2 1.4c-.7-.3-1.2-.8-1.6-1.4l-.1 1.5h-3zm6.2-2.6c.6 0 1.1-.1 1.6-.4.5-.3.8-.8 1.1-1.3a4 4 0 00.4-1.8c0-.6-.1-1.2-.4-1.8-.3-.4-.6-.9-1-1.2a3 3 0 00-3.2 0c-.5.3-.8.7-1.1 1.2a4 4 0 00-.4 1.8 3.4 3.4 0 001.5 3c.4.4 1 .5 1.5.5zm7.6 2.6V11.7h3v1.6a4 4 0 013.7-2 4.2 4.2 0 013.8 2.5c.4.8.6 1.7.6 2.8v7.2h-3.3V17c0-.9-.2-1.5-.5-2a2 2 0 00-1.6-.8c-.5 0-1 .1-1.3.4l-.9.9c-.2.4-.3.9-.3 1.3v7h-3.2zm12.7 0v-17h3.2v6.4a4.7 4.7 0 013.8-1.9 5.1 5.1 0 014 1.9c1 1.2 1.6 2.8 1.5 4.4a7 7 0 01-1.6 4.6 5.3 5.3 0 01-6.3 1.4c-.6-.3-1.2-.8-1.6-1.4v1.5h-3zm6.2-2.6a3 3 0 001.6-.4 4 4 0 001.5-3 3.4 3.4 0 00-1.5-3.1 3 3 0 00-3.2 0c-.4.3-.8.7-1 1.2-.3.6-.5 1.2-.4 1.8a3.4 3.4 0 001.4 3c.5.4 1 .5 1.6.5z" fill="#FF385C"/></svg>