<svg width="120" height="28" fill="none" xmlns="http://www.w3.org/2000/svg"><g clip-path="url(#clip0)"><path d="M42.7 10v1.5c.6-.8 1.6-1.8 3.7-1.8 1.6 0 2.9.8 3.4 2a4.7 4.7 0 014-2c2.3 0 4.3 1.4 4.3 5v7h-3.4v-6.5c0-1.8-.6-2.9-2-2.9-1 0-1.8.7-2 1.5a3 3 0 00-.2 1v6.8H47V15c0-1.6-.6-2.7-2-2.7-1.1 0-1.8.8-2 1.5-.2.3-.2.7-.2 1v6.8h-3.4V10h3.2zm32.9 0v2.2a3.6 3.6 0 014.2-2.4v3h-1c-1.4 0-2.5.7-2.7 2v6.9h-3.6V10h3zm9-4v3.8h2.9v3h-3V17c0 1.5.4 2.1 1.6 2.1l1.3-.1v2.5c-.4.1-1.4.3-2.4.3-1.2 0-2.2-.4-2.8-1-.6-.6-1-1.8-1-3.3V6h3.4zM37 21.7h-3.3V6.1H37v15.5zm-9-4.1v.6c-.3.8-1.2 1.5-2.3 1.5-1 0-1.7-.5-1.7-1.5 0-1.6 1.9-2.1 4-2v1.4zm3.4-2.8c0-2.7-1.2-5-5.3-5-2 0-3.7.5-4.6 1l.6 2.2c.8-.5 2.2-1 3.4-1 2 0 2.4 1.2 2.4 1.9v.1c-4.5 0-7.3 1.5-7.3 4.5 0 1.8 1.4 3.5 4 3.5 1.5 0 2.8-.6 3.6-1.5 0 0 .6 2 3.4 1.2a16 16 0 01-.2-2.8v-4.1zM3.7 6l1.4 6.4 1 5.7h.1l1.2-5.4L9.1 6h3.7l1.5 6.8 1 5.2 1.1-5.3 1.5-6.7h3.5l-4.3 15.5c-2.8.6-4-.4-4.3-2.1l-1.1-4.9-1-4.7-1 4.7-1.9 7c-2.8.6-3.8-.2-4.4-2.4L0 6.1h3.7zM67 17.5v.6c-.3.8-1.2 1.5-2.3 1.5-1 0-1.7-.5-1.7-1.5 0-1.6 1.9-2.1 4-2v1.4zm3.4-2.8c0-2.7-1.2-5-5.3-5-2 0-3.8.5-4.7 1L61 13c.8-.5 2.1-1 3.4-1 2 0 2.4 1.2 2.4 1.9v.1c-4.5 0-7.4 1.5-7.4 4.5 0 1.8 1.5 3.5 4 3.5 1.6 0 2.9-.6 3.6-1.5h.1s.5 2 3.4 1.2a16 16 0 01-.2-2.8v-4.1z" fill="#041E42"/><path d="M101.2 16.3c.3.6.3 1.2 0 1.5L95 22c-.6.4-1.6 0-2.1-1-.6-1-.5-2 .1-2.3l6.8-3.1c.5-.2 1 .1 1.4.7zm8 0c.4-.6 1-.9 1.4-.7l6.8 3c.6.4.7 1.5.2 2.4-.6 1-1.6 1.4-2.2 1l-6.1-4.2c-.4-.3-.4-1 0-1.5zm-4 2.3c.7 0 1.2.3 1.3.8l.7 7.3c0 .7-1 1.3-2 1.3s-2-.6-2-1.3l.7-7.3c0-.5.6-.8 1.3-.8zm4-8.4l6.2-4.2c.6-.4 1.6 0 2.2 1 .5 1 .4 2-.2 2.3l-6.8 3.1c-.5.2-1-.1-1.4-.7-.3-.6-.3-1.2 0-1.5zm-9.4 2.2l-6.8-3c-.6-.4-.7-1.5-.1-2.4.5-1 1.5-1.4 2-1l6.2 4.2c.4.3.4 1 0 1.5-.3.6-.8.9-1.3.7zm4.1-3.8l-.6-7.3c0-.7.8-1.3 2-1.3 1 0 1.9.6 1.9 1.3l-.7 7.3c0 .5-.6.8-1.3.8-.7 0-1.2-.3-1.3-.8zM119.2 22v-.2h.2v.2h-.2zm-.1.3h.1v-.2h.1l.1.2h.1V22l.1-.2c0-.2 0-.2-.2-.2h-.3v.6zm-.3-.3c0-.3.2-.5.5-.5s.6.2.6.5-.3.5-.6.5a.5.5 0 01-.5-.5zm-.2 0c0 .4.3.7.7.7.4 0 .7-.3.7-.7 0-.4-.3-.7-.7-.7-.4 0-.7.3-.7.7z" fill="#FFC124"/></g><defs><clipPath id="clip0"><path fill="#fff" d="M0 0h120v28H0z"/></clipPath></defs></svg>