<svg width="103" height="32" fill="none" xmlns="http://www.w3.org/2000/svg"><g clip-path="url(#clip0)" fill-rule="evenodd" clip-rule="evenodd"><path d="M63.9 25a39.4 39.4 0 01-49.2-3.7c-.5-.5 0-1.2.6-.8a53.2 53.2 0 0047.7 3c1-.4 1.9.8.9 1.5z" fill="#F90"/><path d="M66.4 22c-.8-1-5-.4-7-.2-.6.1-.7-.4-.1-.8 3.4-2.5 9-1.7 9.6-1 .7 1-.1 6.7-3.3 9.5-.5.4-1 .2-.8-.4.7-1.8 2.4-6 1.6-7z" fill="#F90"/><path d="M59.5 3.5V1c0-.4.3-.6.6-.6h10.5c.3 0 .6.2.6.6v2c0 .4-.3.8-.8 1.6l-5.4 8c2 0 4.1.2 6 1.3.4.2.5.6.5 1v2.5c0 .3-.4.8-.7.5-3.3-1.7-7.6-1.9-11.1 0-.4.3-.8-.1-.8-.5v-2.4c0-.4 0-1.1.4-1.7l6.3-9.3h-5.5a.6.6 0 01-.6-.6zM21.3 18.5h-3.2a.6.6 0 01-.5-.5V1c0-.3.2-.6.6-.6h3c.3 0 .5.3.5.6v2.2C22.7 1.2 24 .2 26 .2s3.2 1 4.1 3a4.5 4.5 0 014.4-3c1.4 0 2.8.5 3.7 1.8 1 1.4.8 3.5.8 5.3v10.6c0 .4-.3.6-.6.6h-3.2a.6.6 0 01-.6-.6V9c0-.7.1-2.5 0-3.2-.3-1-1-1.4-2-1.4-.7 0-1.5.5-1.8 1.4-.4.8-.3 2.2-.3 3.2v9c0 .3-.3.5-.6.5h-3.2a.6.6 0 01-.6-.6V9c0-1.9.3-4.7-2-4.7S22 7 22 9v9c0 .3-.2.5-.6.5M80.2.2c4.8 0 7.3 4.1 7.3 9.5 0 5.1-2.8 9.2-7.3 9.2-4.6 0-7.1-4.2-7.1-9.4C73 4.2 75.6.2 80.2.2zm0 3.4C78 3.6 77.9 7 77.9 9c0 2 0 6.4 2.4 6.4 2.5 0 2.6-3.5 2.6-5.7 0-1.4 0-3.1-.5-4.5-.3-1.1-1-1.6-2-1.6zM93.7 18.5h-3.2a.6.6 0 01-.6-.6V1.1c0-.3.3-.6.6-.6h3c.3 0 .5.2.5.5v2.6h.1C95 1.3 96.2.2 98.4.2c1.5 0 2.9.5 3.8 2 .8 1.3.8 3.6.8 5.2V18c0 .3-.3.5-.6.5h-3.2a.6.6 0 01-.6-.5V9c0-1.9.2-4.6-2-4.6-.7 0-1.5.5-1.8 1.4-.5 1-.5 2-.5 3.2v9c0 .4-.3.6-.6.6M51.2 10.5c0 1.3 0 2.3-.6 3.5-.5.9-1.3 1.5-2.2 1.5-1.2 0-2-1-2-2.4 0-2.8 2.5-3.3 4.8-3.3v.7zm3.2 8c-.2.2-.5.2-.8 0-1-.8-1.2-1.2-1.8-2.1-1.7 1.8-3 2.4-5.2 2.4-2.7 0-4.8-1.7-4.8-5.1 0-2.7 1.4-4.5 3.4-5.4 1.7-.8 4.1-1 6-1.2v-.4c0-.8 0-1.7-.4-2.4-.4-.6-1.1-.8-1.8-.8-1.2 0-2.3.6-2.6 2 0 .3-.2.5-.5.6l-3.1-.4c-.3 0-.6-.3-.5-.7.7-3.8 4.1-5 7.2-5 1.5 0 3.5.4 4.8 1.6 1.5 1.5 1.4 3.5 1.4 5.7v5.1c0 1.5.6 2.2 1.2 3 .2.4.2.7 0 1l-2.5 2.1M9.4 10.5c0 1.3 0 2.3-.6 3.5-.5.9-1.3 1.5-2.2 1.5-1.2 0-2-1-2-2.4 0-2.8 2.5-3.3 4.8-3.3v.7zm3.2 8c-.2.2-.5.2-.7 0-1.1-.8-1.3-1.2-1.9-2.1-1.7 1.8-3 2.4-5.2 2.4C2 18.8 0 17 0 13.7 0 11 1.4 9.2 3.4 8.3c1.7-.8 4.1-1 6-1.2v-.4c0-.8 0-1.7-.4-2.4-.4-.6-1.1-.8-1.8-.8-1.2 0-2.3.6-2.5 2-.1.3-.3.5-.6.6l-3-.4C.6 5.7.4 5.4.4 5c.7-3.8 4.1-5 7.2-5 1.5 0 3.5.4 4.8 1.6 1.5 1.5 1.4 3.5 1.4 5.7v5.1c0 1.6.6 2.2 1.2 3 .2.4.2.7 0 1l-2.5 2.1" fill="#000"/></g><defs><clipPath id="clip0"><path fill="#fff" d="M0 0h103v32H0z"/></clipPath></defs></svg>