<svg width="84" height="32" fill="none" xmlns="http://www.w3.org/2000/svg"><path d="M69 30.6c8 0 14.5-6.6 14.5-14.7 0-8-6.5-14.7-14.4-14.7-8 0-14.5 6.6-14.5 14.7S61 30.6 69 30.6zm0-20c3 0 5.2 2.4 5.2 5.3 0 3-2.3 5.3-5.1 5.3a5.2 5.2 0 01-5.2-5.3c0-2.9 2.3-5.2 5.2-5.2zm-54.5 20c8 0 14.4-6.6 14.4-14.7 0-8-6.5-14.7-14.4-14.7C6.5 1.2 0 7.8 0 16s6.5 14.7 14.5 14.7zm0-20c2.8 0 5.1 2.4 5.1 5.3 0 3-2.3 5.3-5.1 5.3a5.2 5.2 0 01-5.2-5.3c0-2.9 2.3-5.2 5.2-5.2zm27.3-.2l-4.5-9H27L36.6 21v9.2H47V21l9.7-19.6H46.2l-4.4 9z" fill="#EE2E24"/></svg>