<svg width="98" height="34" fill="none" xmlns="http://www.w3.org/2000/svg"><path fill-rule="evenodd" clip-rule="evenodd" d="M86.4 15.8L80 26.7h-5.3L86.4 6.3l11.5 20.4h-5.4l-6.1-10.9zM69.6 22h6l-2.8 4.7H65V6.4h4.6V22zM53.2 6.4c5.7 0 10.3 4.6 10.3 10.2 0 5.5-4.6 10-10.3 10-5.7 0-10.3-4.5-10.3-10C43 11 47.6 6.3 53.2 6.3zm0 15.6c3 0 5.5-2.5 5.5-5.4 0-3-2.4-5.4-5.5-5.4-3 0-5.5 2.4-5.5 5.4 0 3 2.5 5.4 5.5 5.4zm-18.7-7a15.2 15.2 0 00-4-9c-.8-.9-1.7-1.7-3-2.6l-3.1-1.7L21.9.5a17.8 17.8 0 00-7.4-.2c-1.3.2-2.3.6-3.7 1a16.9 16.9 0 003.8 32.4c2 .2 4 .1 5.9-.3l1.3-.4h.2l1.5-.6.2-.1.7-.3c1.2-.6 2.3-1.4 3.4-2.2L24.7 32l.7-.1v.2c-.4.3.1 0 .8-.3l2-1.3c.8-.7 1.6-1.5 2.7-2.8 1-2 2.5-3.7 3-6a13.2 13.2 0 00.6-6.8zM18.7 32.2c3.7-.6 6.9-2.7 9.4-5.5l2-3c.8-2 .7-4 1-5.3.4-2.4-.4-4.3-1.1-6.4A11 11 0 0025 6.5C19 2.7 10.6 3.7 6.7 9.5l-.4.4A5 5 0 018 7.4c2-1.8 4.5-3.1 7.3-3.8 3.1-.3 6.2 0 9 1.4 4.2 2.4 7 6.1 7.6 10.5v4.2a14.9 14.9 0 01-13.2 12.5zM34 16.9C34 7 24.1.4 14.7 1.7c-2.8.7-5.8 2.1-8 4-1 .7-1.5 2-2.6 3C0 15 .7 22.7 6 27.5L8 29.4A14.8 14.8 0 011 18c0-1.8.4-3.5.7-5.2C4.2 5.3 11.8-.2 20.1 1.2l4.2 1c1.8.7 3.5 1.8 4.9 3.1 1.3 1.4 2.4 3.1 3.4 4.8.7 1.4 1 3 1.4 4.4V17z" fill="#000"/><path fill-rule="evenodd" clip-rule="evenodd" d="M25.4 17c0 4.3-3.6 7.7-8 7.7A7.8 7.8 0 019.7 17c0-4.2 3.5-7.6 7.9-7.6 4.3 0 7.9 3.4 7.9 7.6z" fill="#fff"/><path fill-rule="evenodd" clip-rule="evenodd" d="M25.4 15.7c0-.5-.3-1-.4-1.7a9 9 0 00-3-3.4c-5-3.3-11.8-.2-12.5 5.5-.3 2.2.5 4.3 2 6-.5-.5-1-1-1.3-1.5l.2.4h-.1l.2.4.6.9 1.4 1.2c1 .5 1.8 1.1 2.8 1.4l1 .2a6 6 0 002.3 0l1.5-.3c1-.3 2-.9 2.8-1.6.4-.4 1-.9 1.4-1.5l.6-1.4.5-1.1.2-1.8c0-.5 0-1.1-.2-1.7zm-5-3.9l.4.3c.6 0 .9.4 1.2.7.9 1 1.5 2 1.9 3.3.2 1.5 0 3-.6 4.2a7 7 0 01-5 3.6h-.7c.6 0 1-.4 2-.8 1.2-.5 2.6-2.4 3.2-3.5 1.9-3.1-.3-6-2.5-7.8zm-4 12.2a7 7 0 01-6.1-6.1c.3 1.7 1.3 3 2.7 4.2l1.7 1c.8.4 1.3.7 2.1.9h-.5zm8.7-5.6l-.5 1.9c-.3.8-.8 1.6-1.4 2.3a11 11 0 01-2.3 1.6l-2 .7-1.3-.2c4.7-.1 8-4.5 7.3-9-.4-1.2-1-2.3-1.9-3.4-.3-.5-1-.8-1.5-1.3a7.2 7.2 0 00-10 2A8 8 0 0117 9.7c.9 0 1.7 0 2.5.2 3.6 1.1 6.2 4.6 5.7 8.5z" fill="#D7DF23"/></svg>