<svg width="18" height="18" fill="none" xmlns="http://www.w3.org/2000/svg"><path fill-rule="evenodd" clip-rule="evenodd" d="M17.5 9a8.5 8.5 0 11-17 0 8.5 8.5 0 0117 0zM6 2.4c-2 1-3.6 2.8-4 5 .2 0 3.2.1 6.7-.8L5.9 2.4zm3.3 5.3c-3.8 1.1-7.4 1-7.5 1V9c0 1.9.7 3.6 1.9 4.9a11.5 11.5 0 016.2-5l-.6-1.2zm4.6-4.2A7.3 7.3 0 007.3 2c0 .2 1.5 2 2.7 4.3 2.8-1 3.8-2.6 3.8-2.7zm-3.5 6.7a9.9 9.9 0 00-5.8 4.5 7.3 7.3 0 007.3 1c0-.6-.5-2.9-1.5-5.5zM13 15a7.3 7.3 0 003-4.9s-2-.7-4.4-.3c1 2.6 1.3 4.8 1.4 5.2zm-2.5-7.8a22.8 22.8 0 01.6 1.5c2.5-.3 5 .2 5 .2 0-1.7-.6-3.3-1.6-4.5 0 0-1.2 1.7-4 2.8z" fill="#fff"/></svg>