<svg width="162" height="48" fill="none" xmlns="http://www.w3.org/2000/svg"><path d="M156 0H6a6 6 0 00-6 6v36a6 6 0 006 6h150a6 6 0 006-6V6a6 6 0 00-6-6z" fill="#000"/><path d="M156 1a5 5 0 015 5v36a5 5 0 01-5 5H6a5 5 0 01-5-5V6a5 5 0 015-5h150zm0-1H6a6 6 0 00-6 6v36a6 6 0 006 6h150a6 6 0 006-6V6a6 6 0 00-6-6z" fill="#A6A6A6"/><path d="M56.9 12.3a3.2 3.2 0 01-2.1 3.2l-1.4.3a3.7 3.7 0 01-3.8-3.8 3.7 3.7 0 015.2-3.5c.5.2.9.5 1.2.8l-.7.7a2.4 2.4 0 00-2-.9 2.8 2.8 0 00-2.7 2.9 2.8 2.8 0 004.8 2c.3-.3.6-.8.6-1.4h-2.6v-.9h3.5v.6zM62.4 9.3h-3.2v2.3h3v.8h-3v2.3h3.2v.9h-4.2V8.4h4.2v.9zM66.3 15.6h-.9V9.3h-2v-.9h5v.9h-2v6.3zM72 15.6V8.4h.9v7.2h-1zM77 15.6h-1V9.3h-2v-.9h5v.9h-2v6.3zM88.3 14.7a3.7 3.7 0 01-6-1.3 3.7 3.7 0 014.9-5 3.7 3.7 0 012 2.2l.2 1.4a3.7 3.7 0 01-1 2.7zm-4.6-.6a2.8 2.8 0 004.7-2.1 2.8 2.8 0 00-.8-2 2.8 2.8 0 00-4.7 2 2.8 2.8 0 00.8 2zM90.7 15.6V8.4h1.1l3.5 5.6h0V8.4h1v7.2h-1l-3.7-5.9h0v5.9h-1z" fill="#fff" stroke="#fff" stroke-width=".2" stroke-miterlimit="10"/><path d="M81.8 26.1a5.1 5.1 0 104.7 3.1 5 5 0 00-4.7-3.1zm0 8.2a3.1 3.1 0 112.8-3 3 3 0 01-2.8 3zm-11.2-8.2a5.1 5.1 0 104.7 3.1 5 5 0 00-4.7-3.1zm0 8.2a3.1 3.1 0 112.9-3 3 3 0 01-3 3zm-13.3-6.6v2.1h5.2a4.5 4.5 0 01-3 4c-.7.2-1.5.4-2.2.3a5.8 5.8 0 010-11.5c1.4 0 2.9.6 3.9 1.6l1.5-1.6a7.6 7.6 0 00-5.4-2.1 8 8 0 100 15.8 7.2 7.2 0 005.5-2.2c1.3-1.4 2-3.2 1.9-5l-.1-1.4h-7.3zm54.4 1.6a4.7 4.7 0 00-4.4-3.2 4.8 4.8 0 00-4.8 5.1 5 5 0 005 5.1 5 5 0 004.3-2.3l-1.7-1.1a3 3 0 01-2.6 1.4 2.6 2.6 0 01-2.4-1.5l6.8-2.9-.2-.6zm-7 1.8a2.8 2.8 0 012.7-3 2 2 0 011.9 1l-4.6 2zM99.2 36h2.2V21h-2.2v15zm-3.7-8.8h-.1a3.5 3.5 0 00-2.7-1.1 5.1 5.1 0 000 10.2 3.5 3.5 0 002.7-1.2v.8c0 2-1 3-2.6 3a2.8 2.8 0 01-2.6-1.8l-2 .8a4.9 4.9 0 004.6 3c2.6 0 4.8-1.6 4.8-5.3v-9.2h-2.1v.8zm-2.6 7.1a3.1 3.1 0 010-6.2 2.9 2.9 0 012.7 3.1 2.9 2.9 0 01-2.7 3.1zM122.2 21h-5.4v15h2.2v-5.7h3.2a4.7 4.7 0 100-9.3zm0 7.2H119v-5.1h3.2a2.6 2.6 0 110 5.1zm13.9-2.1a4.2 4.2 0 00-4 2.3l2 .8a2.1 2.1 0 012-1.1 2.2 2.2 0 012.4 2 5 5 0 00-2.4-.5c-2.1 0-4.3 1.2-4.3 3.4a3.5 3.5 0 003.7 3.3 3.2 3.2 0 002.9-1.5V36h2.2v-5.8c0-2.6-2-4.1-4.5-4.1zm-.3 8.2c-.7 0-1.8-.4-1.8-1.3 0-1.1 1.3-1.6 2.4-1.6a4 4 0 012 .5 2.7 2.7 0 01-2.6 2.4zm12.7-7.9l-2.6 6.5-2.7-6.5h-2.4l4 9-2.3 5.1h2.3l6.2-14.1h-2.5zM128.3 36h2.3V21h-2.3v15z" fill="#fff"/><path d="M12.5 9c-.4.5-.6 1.1-.5 1.7v26.6c0 .6.1 1.2.5 1.7h.1l14.9-14.8v-.4L12.6 9z" fill="url(#paint0_linear)"/><path d="M32.4 29.1l-5-5v-.3l5-5 .1.1 6 3.4c1.6 1 1.6 2.5 0 3.4l-6 3.4z" fill="url(#paint1_linear)"/><path d="M32.5 29l-5-5-15 15a2 2 0 002.5 0l17.5-10z" fill="url(#paint2_linear)"/><path d="M32.5 19L15 9a2 2 0 00-2.5 0l15 15 5-5z" fill="url(#paint3_linear)"/><path opacity=".2" d="M32.4 29L15 38.9a2 2 0 01-2.4 0v.1a2 2 0 002.4 0l17.5-10z" fill="#000"/><path opacity=".1" d="M12.5 38.8c-.4-.5-.6-1-.5-1.7v.2c0 .6.1 1.2.5 1.7l.1-.1v-.1zM38.4 25.6l-6 3.4h.1l6-3.3a2.1 2.1 0 001.2-1.7 2.2 2.2 0 01-1.3 1.6z" fill="#000"/><path opacity=".3" d="M15 9.1l23.4 13.3a2.2 2.2 0 011.3 1.6 2.1 2.1 0 00-1.3-1.7L15 9c-1.7-1-3-.2-3 1.7v.2c0-2 1.3-2.7 3-1.8z" fill="#fff"/><defs><linearGradient id="paint0_linear" x1="26.2" y1="10.5" x2="6" y2="30.6" gradientUnits="userSpaceOnUse"><stop stop-color="#00A0FF"/><stop offset="0" stop-color="#00A1FF"/><stop offset=".3" stop-color="#00BEFF"/><stop offset=".5" stop-color="#00D2FF"/><stop offset=".8" stop-color="#00DFFF"/><stop offset="1" stop-color="#00E3FF"/></linearGradient><linearGradient id="paint1_linear" x1="40.6" y1="24" x2="11.6" y2="24" gradientUnits="userSpaceOnUse"><stop stop-color="#FFE000"/><stop offset=".4" stop-color="#FFBD00"/><stop offset=".8" stop-color="orange"/><stop offset="1" stop-color="#FF9C00"/></linearGradient><linearGradient id="paint2_linear" x1="29.8" y1="26.8" x2="2.5" y2="54.1" gradientUnits="userSpaceOnUse"><stop stop-color="#FF3A44"/><stop offset="1" stop-color="#C31162"/></linearGradient><linearGradient id="paint3_linear" x1="8.8" y1=".2" x2="21" y2="12.4" gradientUnits="userSpaceOnUse"><stop stop-color="#32A071"/><stop offset=".1" stop-color="#2DA771"/><stop offset=".5" stop-color="#15CF74"/><stop offset=".8" stop-color="#06E775"/><stop offset="1" stop-color="#00F076"/></linearGradient></defs></svg>