<svg width="80" height="68" fill="none" xmlns="http://www.w3.org/2000/svg"><path fill-rule="evenodd" clip-rule="evenodd" d="M.4 57.4c11.9-6 17.8-12.9 17.8-20.8-5-.6-9.2-2.7-12.6-6.3-3.3-3.6-5-7.7-5-12.5 0-5 1.7-9.2 4.9-12.6A16 16 0 0117.7 0C23 0 27.9 2.2 31.9 6.7s6 10 6 16.3c0 19.2-10.7 34.2-32 45L.4 57.4zm42 0c12-6 18-12.9 18-20.8-5-.6-9.3-2.7-12.7-6.3-3.3-3.6-5-7.7-5-12.5 0-5 1.7-9.2 5-12.6C50.9 1.7 55 0 59.9 0c5.5 0 10.2 2.2 14.2 6.7S80 16.7 80 23c0 19.2-10.6 34.2-31.8 45l-5.7-10.6z" fill="#2EC5CE"/></svg>